<svg width="53" height="53" viewBox="0 0 53 53" fill="none" xmlns="http://www.w3.org/2000/svg">
<path d="M11.0417 46.375C9.82708 46.375 8.77813 45.9517 7.89479 45.1052C7.04826 44.2219 6.625 43.1729 6.625 41.9583V11.0417C6.625 9.82709 7.04826 8.79653 7.89479 7.95C8.77813 7.06667 9.82708 6.625 11.0417 6.625H41.9583C43.1729 6.625 44.2035 7.06667 45.05 7.95C45.9333 8.79653 46.375 9.82709 46.375 11.0417V41.9583C46.375 43.1729 45.9333 44.2219 45.05 45.1052C44.2035 45.9517 43.1729 46.375 41.9583 46.375H11.0417ZM11.0417 41.9583H41.9583V35.3333H35.3333C34.2292 36.7319 32.9042 37.8177 31.3583 38.5906C29.8493 39.3635 28.2299 39.75 26.5 39.75C24.7701 39.75 23.1323 39.3635 21.5865 38.5906C20.0774 37.8177 18.7708 36.7319 17.6667 35.3333H11.0417V41.9583ZM26.5 35.3333C27.8986 35.3333 29.1684 34.9285 30.3094 34.1188C31.4503 33.309 32.2417 32.2417 32.6833 30.9167H41.9583V11.0417H11.0417V30.9167H20.3167C20.7583 32.2417 21.5497 33.309 22.6906 34.1188C23.8316 34.9285 25.1014 35.3333 26.5 35.3333ZM11.0417 41.9583H17.6667C18.7708 41.9583 20.0774 41.9583 21.5865 41.9583C23.1323 41.9583 24.7701 41.9583 26.5 41.9583C28.2299 41.9583 29.8493 41.9583 31.3583 41.9583C32.9042 41.9583 34.2292 41.9583 35.3333 41.9583H41.9583H11.0417Z" fill="#FEF7FF"/>
</svg>
