<svg width="26" height="29" viewBox="0 0 26 29" fill="none" xmlns="http://www.w3.org/2000/svg">
<path d="M7.58333 13.2917V8.45832C7.58333 6.85597 8.15402 5.31925 9.16984 4.18622C10.1857 3.05319 11.5634 2.41666 13 2.41666C14.4366 2.41666 15.8143 3.05319 16.8302 4.18622C17.846 5.31925 18.4167 6.85597 18.4167 8.45832V13.2917M5.41667 13.2917H20.5833C21.78 13.2917 22.75 14.3736 22.75 15.7083V24.1667C22.75 25.5013 21.78 26.5833 20.5833 26.5833H5.41667C4.22005 26.5833 3.25 25.5013 3.25 24.1667V15.7083C3.25 14.3736 4.22005 13.2917 5.41667 13.2917Z" stroke="white" stroke-width="4" stroke-linecap="round" stroke-linejoin="round"/>
</svg>
