<svg width="88" height="88" viewBox="0 0 88 88" fill="none" xmlns="http://www.w3.org/2000/svg">
<rect width="88" height="88" rx="44" fill="#EADDFF"/>
<path fill-rule="evenodd" clip-rule="evenodd" d="M57.2005 35.2C57.2005 42.4902 51.2907 48.4 44.0005 48.4C36.7104 48.4 30.8005 42.4902 30.8005 35.2C30.8005 27.9098 36.7104 22 44.0005 22C51.2907 22 57.2005 27.9098 57.2005 35.2ZM52.8005 35.2C52.8005 40.0601 48.8606 44 44.0005 44C39.1404 44 35.2005 40.0601 35.2005 35.2C35.2005 30.3399 39.1404 26.4 44.0005 26.4C48.8606 26.4 52.8005 30.3399 52.8005 35.2Z" fill="#4F378A"/>
<path d="M44.0005 55C29.7569 55 17.6209 63.4225 12.998 75.2225C14.1242 76.3408 15.3106 77.3985 16.5518 78.3905C19.9942 67.5569 30.7933 59.4 44.0005 59.4C57.2078 59.4 68.0069 67.5569 71.4493 78.3906C72.6905 77.3986 73.8769 76.3408 75.003 75.2225C70.3802 63.4225 58.2442 55 44.0005 55Z" fill="#4F378A"/>
</svg>
